<svg xmlns="http://www.w3.org/2000/svg" viewBox="0 0 24 24" fill="none" stroke="#000000" stroke-width="1.6" stroke-linecap="round" stroke-linejoin="round">
  <path d="M12 9 a3 3 0 1 0 0 6 a3 3 0 1 0 0 -6 M19.4 15 a1.65 1.65 0 0 0 .33 1.82 L19.79 16.9 a2 2 0 0 1 -2.83 2.83 L16.9 19.7 a1.65 1.65 0 0 0 -1.82 -.33 a1.65 1.65 0 0 0 -1 1.51 L14.08 21 a2 2 0 0 1 -4 0 L10 20.91 a1.65 1.65 0 0 0 -1 -1.51 a1.65 1.65 0 0 0 -1.82 .33 L7.1 19.79 a2 2 0 0 1 -2.83 -2.83 L4.3 16.9 a1.65 1.65 0 0 0 .33 -1.82 a1.65 1.65 0 0 0 -1.51 -1 L3 14.08 a2 2 0 0 1 0 -4 L3.09 10 a1.65 1.65 0 0 0 1.51 -1 a1.65 1.65 0 0 0 -.33 -1.82 L4.21 7.1 a2 2 0 0 1 2.83 -2.83 L7.1 4.3 a1.65 1.65 0 0 0 1.82 .33 a1.65 1.65 0 0 0 1 -1.51 L10 3 a2 2 0 0 1 4 0 L14 3.09 a1.65 1.65 0 0 0 1 1.51 a1.65 1.65 0 0 0 1.82 -.33 L16.9 4.21 a2 2 0 0 1 2.83 2.83 L19.7 7.1 a1.65 1.65 0 0 0 -.33 1.82 a1.65 1.65 0 0 0 1.51 1 L21 9.92 a2 2 0 0 1 0 4 Z"/>
</svg>
